<svg xmlns="http://www.w3.org/2000/svg" width="40" height="40" fill="none"><circle cx="20" cy="20" r="14.5" stroke="#fff"/><path stroke="#fff" d="M10 29.82A14.94 14.94 0 0 1 20 26c3.842 0 7.346 1.444 10 3.82M10 10.18A14.94 14.94 0 0 0 20 14c3.842 0 7.346-1.445 10-3.82"/><path stroke="#fff" d="M20 5.5c1.935 0 3.802 1.479 5.216 4.129C26.618 12.258 27.5 15.923 27.5 20s-.882 7.742-2.284 10.371C23.802 33.021 21.935 34.5 20 34.5s-3.802-1.479-5.216-4.129C13.382 27.742 12.5 24.077 12.5 20s.882-7.742 2.284-10.371C16.198 6.979 18.065 5.5 20 5.5Z"/><mask id="a" fill="#fff"><ellipse cx=".5" cy="15" rx=".5" ry="15" transform="matrix(-1 0 0 1 21 5)"/></mask><path fill="#fff" d="M20 20h1c0 4.135.056 7.873.146 10.573.045 1.353.098 2.433.156 3.17q.045.557.084.791c.014.087.021.101.013.077-.002-.005-.026-.084-.09-.18-.028-.044-.28-.431-.809-.431v2c-.546 0-.815-.4-.861-.47a1.2 1.2 0 0 1-.14-.296 2.6 2.6 0 0 1-.087-.378c-.04-.242-.073-.57-.104-.956a78 78 0 0 1-.161-3.26C19.056 27.91 19 24.15 19 20zm.5 15v-1c-.529 0-.78.387-.81.431-.063.096-.087.175-.089.18-.008.024-.001.01.013-.076q.039-.236.084-.792c.058-.737.111-1.817.156-3.17.09-2.7.146-6.438.146-10.573h2c0 4.15-.056 7.911-.147 10.64a78 78 0 0 1-.162 3.26c-.03.386-.064.714-.103.956a2.6 2.6 0 0 1-.087.378c-.018.057-.06.174-.14.296-.046.07-.315.47-.861.47zm.5-15h-1c0-4.135-.056-7.873-.146-10.573a76 76 0 0 0-.156-3.17q-.045-.557-.084-.791c-.014-.087-.021-.101-.013-.077.002.006.026.084.09.18.028.044.28.431.809.431V4c.546 0 .815.4.861.47.08.122.122.24.14.296.042.126.068.264.087.378.04.242.073.57.104.956.061.782.116 1.898.161 3.26C21.944 12.09 22 15.85 22 20zm-.5-15v1c.529 0 .78-.387.81-.431.063-.096.087-.174.089-.18.008-.024.001-.01-.013.077q-.039.234-.084.791a76 76 0 0 0-.156 3.17C21.056 12.127 21 15.865 21 20h-2c0-4.15.056-7.911.147-10.64.045-1.362.1-2.478.162-3.26.03-.386.064-.714.103-.956.019-.114.045-.252.087-.378.018-.057.06-.174.14-.296.046-.07.315-.47.861-.47z" mask="url(#a)"/><path stroke="#fff" d="M6 20.5h29M20.5 34V5"/></svg>