<svg xmlns="http://www.w3.org/2000/svg" width="64" height="80" fill="none"><path fill="#e6b730" fill-rule="evenodd" d="M32 80s32-21.818 32-47.273c0-8.68-3.371-17.004-9.373-23.141C48.627 3.448 40.487 0 32 0S15.374 3.448 9.373 9.586C3.37 15.723 0 24.048 0 32.727 0 58.182 32 80 32 80" clip-rule="evenodd"/><path stroke="#1f2a44" stroke-linecap="round" stroke-width="2" d="M28 27v11"/><path stroke="#1f2a44" stroke-width="2" d="M23 32h-8M41 32h8M19 28l-4 4 4 4M45 36l4-4-4-4"/><path stroke="#1f2a44" stroke-linecap="round" stroke-width="2" d="M36 27v11M32 27v11"/></svg>