<svg xmlns="http://www.w3.org/2000/svg" width="60" height="60" fill="none"><circle cx="30" cy="30" r="30" fill="#e6b730"/><path fill="#151926" fill-rule="evenodd" d="m15 29.826 1.794-1.482.258-.214.302-.268 1.542-1.34.54-.462.33-.28.314-.26.298-.244.285-.229.277-.216.271-.206.268-.198c2.66-1.943 5.137-2.829 8.49-2.829 4.06 0 7.448 1.73 11.24 5.008l.29.252.296.262.468.422 1.279 1.173L45 29.892l-.144.178c-3.728 4.544-9.582 8.328-14.89 8.328-5.565 0-10.332-3.066-14.966-8.572m3.848.267c3.555 3.605 7.23 5.638 11.119 5.638 3.688 0 7.984-2.414 11.202-5.576l-.53-.488-.316-.286-.296-.266-.42-.37-.138-.12c-1.693-1.463-3.261-2.56-4.821-3.288a5.76 5.76 0 0 1 1.087 3.378 5.775 5.775 0 0 1-5.77 5.78 5.775 5.775 0 0 1-5.77-5.78 5.76 5.76 0 0 1 1.212-3.544c-.784.356-1.552.822-2.359 1.41l-.244.182-.248.189-.256.2-.265.212-.28.229-.448.375-.495.422zm15.433-2.014c-.307.532-1.021.694-1.595.363-.574-.332-.79-1.031-.484-1.563.307-.531 1.021-.693 1.595-.362.574.332.79 1.031.484 1.562" clip-rule="evenodd"/></svg>