<svg xmlns="http://www.w3.org/2000/svg" width="30" height="18" fill="none"><path fill="#151926" fill-rule="evenodd" d="m0 8.826 1.794-1.482.258-.214.302-.268 1.542-1.34.54-.462.33-.28.314-.26.298-.244.285-.228.277-.217.271-.206.268-.198C9.14 1.484 11.616.598 14.97.598c4.06 0 7.448 1.73 11.24 5.008l.29.252.296.262.468.422 1.278 1.173L30 8.893l-.144.177c-3.728 4.544-9.582 8.328-14.89 8.328-5.565 0-10.332-3.066-14.966-8.572m3.848.267c3.555 3.605 7.23 5.638 11.119 5.638 3.688 0 7.984-2.414 11.202-5.576l-.53-.488-.316-.286-.296-.266-.42-.37-.138-.12c-1.693-1.463-3.261-2.56-4.821-3.288a5.76 5.76 0 0 1 1.087 3.378 5.775 5.775 0 0 1-5.77 5.78 5.775 5.775 0 0 1-5.77-5.78 5.76 5.76 0 0 1 1.212-3.544c-.784.356-1.552.822-2.359 1.41l-.244.182-.248.189-.256.2-.265.213-.28.228-.448.375-.495.422zM19.281 7.08c-.307.532-1.021.694-1.595.362-.574-.33-.79-1.03-.484-1.562.307-.531 1.021-.693 1.595-.362.574.332.79 1.03.484 1.562" clip-rule="evenodd"/></svg>